<svg xmlns="http://www.w3.org/2000/svg" xmlns:xlink="http://www.w3.org/1999/xlink" width="76" height="70" viewBox="0 0 76 70" role="img" aria-label="MLflow"><svg x="20" y="2" width="36" height="36" viewBox="0 0 256 256" fill="none"><rect width="256" height="256" rx="60" fill="#242938"/><g transform="translate(44 44) scale(7.0000)"><path fill="#0E99E3" d="M11.883.002a12.044 12.044 0 0 0-9.326 19.463l3.668-2.694A7.573 7.573 0 0 1 12.043 4.45v2.867l6.908-5.14A12.012 12.012 0 0 0 11.883.002zm9.562 4.533L17.777 7.23a7.573 7.573 0 0 1-5.818 12.322v-2.867l-6.908 5.14a12.046 12.046 0 0 0 16.394-17.29z"/></g></svg><text x="38" y="52" text-anchor="middle" font-family="-apple-system, BlinkMacSystemFont, 'Segoe UI', 'Noto Sans', Helvetica, Arial, sans-serif" font-size="11" fill="#e6edf3">MLflow</text></svg>
